<svg xmlns="http://www.w3.org/2000/svg" viewBox="0 0 1600 900" role="img" aria-label="Dark protocol audit console">
  <defs>
    <linearGradient id="bg" x1="0" y1="0" x2="1" y2="1">
      <stop offset="0" stop-color="#06131f"/>
      <stop offset=".55" stop-color="#07121d"/>
      <stop offset="1" stop-color="#03070d"/>
    </linearGradient>
    <pattern id="grid" width="40" height="40" patternUnits="userSpaceOnUse">
      <path d="M40 0H0v40" fill="none" stroke="#7ef1ff" stroke-opacity=".09"/>
    </pattern>
  </defs>
  <rect width="1600" height="900" fill="url(#bg)"/>
  <rect width="1600" height="900" fill="url(#grid)"/>
  <circle cx="360" cy="180" r="280" fill="#35f0c2" fill-opacity=".12"/>
  <circle cx="1210" cy="186" r="260" fill="#ffb14d" fill-opacity=".13"/>
  <g fill="none" stroke="#b9ff6a" stroke-opacity=".28">
    <rect x="156" y="176" width="380" height="520" rx="22"/>
    <rect x="610" y="116" width="380" height="580" rx="22"/>
    <rect x="1064" y="176" width="380" height="520" rx="22"/>
  </g>
  <g stroke="#7ef1ff" stroke-opacity=".26" stroke-width="3">
    <path d="M214 294h264M214 374h264M214 454h264M214 534h264"/>
    <path d="M668 254h264M668 334h264M668 414h264M668 494h264M668 574h264"/>
    <path d="M1122 294h264M1122 374h264M1122 454h264M1122 534h264"/>
  </g>
  <g fill="#ffb14d" opacity=".82">
    <rect x="260" y="626" width="128" height="12" rx="6"/>
    <rect x="714" y="626" width="218" height="12" rx="6"/>
    <rect x="1122" y="626" width="178" height="12" rx="6"/>
  </g>
  <path d="M536 436h74M990 436h74" stroke="#b9ff6a" stroke-opacity=".42" stroke-width="6" stroke-linecap="round"/>
  <g fill="#ecfbff" font-family="IBM Plex Mono, monospace" font-size="24" opacity=".48">
    <text x="198" y="240">STATE</text>
    <text x="652" y="180">ROUTING</text>
    <text x="1106" y="240">ACTIVITY</text>
    <text x="106" y="106">AUDIT CONSOLE</text>
  </g>
</svg>
