<svg xmlns="http://www.w3.org/2000/svg" viewBox="0 0 1600 900" role="img" aria-label="Dark PvP operations console">
  <defs>
    <linearGradient id="bg" x1="0" y1="0" x2="1" y2="1">
      <stop offset="0" stop-color="#050a12"/>
      <stop offset=".48" stop-color="#091728"/>
      <stop offset="1" stop-color="#090508"/>
    </linearGradient>
    <pattern id="grid" width="42" height="42" patternUnits="userSpaceOnUse">
      <path d="M42 0H0v42" fill="none" stroke="#7ef1ff" stroke-opacity=".1"/>
    </pattern>
    <linearGradient id="lane" x1="0" y1="0" x2="1" y2="0">
      <stop offset="0" stop-color="#b9ff6a" stop-opacity="0"/>
      <stop offset=".5" stop-color="#b9ff6a" stop-opacity=".62"/>
      <stop offset="1" stop-color="#ffb14d" stop-opacity="0"/>
    </linearGradient>
  </defs>
  <rect width="1600" height="900" fill="url(#bg)"/>
  <rect width="1600" height="900" fill="url(#grid)"/>
  <circle cx="290" cy="190" r="260" fill="#35f0c2" fill-opacity=".11"/>
  <circle cx="1260" cy="160" r="280" fill="#ffb14d" fill-opacity=".13"/>
  <path d="M128 650l354-244 258 122 328-246 406 290" fill="none" stroke="url(#lane)" stroke-width="8" stroke-linecap="round"/>
  <path d="M170 740h1260" stroke="#7ef1ff" stroke-opacity=".2" stroke-width="2"/>
  <g fill="none" stroke="#b9ff6a" stroke-opacity=".32">
    <rect x="210" y="234" width="360" height="218" rx="22"/>
    <rect x="616" y="164" width="360" height="218" rx="22"/>
    <rect x="1020" y="270" width="360" height="218" rx="22"/>
  </g>
  <g fill="#ffb14d" opacity=".82">
    <circle cx="390" cy="342" r="10"/>
    <circle cx="796" cy="272" r="10"/>
    <circle cx="1200" cy="378" r="10"/>
  </g>
  <g fill="#ecfbff" font-family="IBM Plex Mono, monospace" font-size="24" opacity=".46">
    <text x="246" y="328">STEAL</text>
    <text x="652" y="258">GUARD</text>
    <text x="1056" y="364">REVENGE</text>
    <text x="104" y="116">WARBOW OPS</text>
  </g>
</svg>
