<svg xmlns="http://www.w3.org/2000/svg" viewBox="0 0 1600 900" role="img" aria-label="Yield Omega dark command console">
  <defs>
    <linearGradient id="bg" x1="0" y1="0" x2="1" y2="1">
      <stop offset="0" stop-color="#050a12"/>
      <stop offset=".5" stop-color="#0b1b29"/>
      <stop offset="1" stop-color="#04070d"/>
    </linearGradient>
    <pattern id="grid" width="52" height="52" patternUnits="userSpaceOnUse">
      <path d="M52 0H0v52" fill="none" stroke="#7ef1ff" stroke-opacity=".08"/>
    </pattern>
  </defs>
  <rect width="1600" height="900" fill="url(#bg)"/>
  <rect width="1600" height="900" fill="url(#grid)"/>
  <circle cx="280" cy="180" r="320" fill="#35f0c2" fill-opacity=".16"/>
  <circle cx="1290" cy="170" r="320" fill="#ffb14d" fill-opacity=".15"/>
  <path d="M150 692c286-206 568-230 846-80 160 86 300 92 454 28" fill="none" stroke="#b9ff6a" stroke-opacity=".28" stroke-width="6" stroke-linecap="round"/>
  <path d="M138 750h1324" stroke="#7ef1ff" stroke-opacity=".18" stroke-width="2"/>
  <g fill="none" stroke="#7ef1ff" stroke-opacity=".18">
    <rect x="158" y="168" width="398" height="248" rx="24"/>
    <rect x="602" y="112" width="396" height="304" rx="24"/>
    <rect x="1046" y="168" width="398" height="248" rx="24"/>
  </g>
  <g fill="#b9ff6a" opacity=".76">
    <circle cx="356" cy="292" r="12"/>
    <circle cx="800" cy="264" r="12"/>
    <circle cx="1244" cy="292" r="12"/>
  </g>
  <g fill="#ecfbff" font-family="IBM Plex Mono, monospace" font-size="26" opacity=".46">
    <text x="108" y="112">PLAY</text>
    <text x="108" y="148">AUDIT</text>
    <text x="108" y="184">REFER</text>
    <text x="1180" y="726">TIME ARENA ONLINE</text>
  </g>
</svg>
