<svg xmlns="http://www.w3.org/2000/svg" viewBox="0 0 1600 900" role="img" aria-label="Dark referral network console">
  <defs>
    <linearGradient id="bg" x1="0" y1="0" x2="1" y2="1">
      <stop offset="0" stop-color="#041112"/>
      <stop offset=".5" stop-color="#0a1727"/>
      <stop offset="1" stop-color="#050a12"/>
    </linearGradient>
    <pattern id="grid" width="44" height="44" patternUnits="userSpaceOnUse">
      <path d="M44 0H0v44" fill="none" stroke="#7ef1ff" stroke-opacity=".08"/>
    </pattern>
  </defs>
  <rect width="1600" height="900" fill="url(#bg)"/>
  <rect width="1600" height="900" fill="url(#grid)"/>
  <circle cx="800" cy="430" r="330" fill="#35f0c2" fill-opacity=".07"/>
  <circle cx="1200" cy="230" r="260" fill="#ffb14d" fill-opacity=".12"/>
  <g fill="none" stroke="#b9ff6a" stroke-opacity=".34" stroke-width="4">
    <path d="M360 520l250-168 190 116 230-210 230 178"/>
    <path d="M610 352l-64 246 254-130 64 224 166-434"/>
  </g>
  <g fill="#07121d" stroke="#7ef1ff" stroke-opacity=".46" stroke-width="3">
    <circle cx="360" cy="520" r="44"/>
    <circle cx="610" cy="352" r="44"/>
    <circle cx="800" cy="468" r="54"/>
    <circle cx="1030" cy="258" r="44"/>
    <circle cx="1260" cy="436" r="44"/>
    <circle cx="546" cy="598" r="32"/>
    <circle cx="864" cy="692" r="32"/>
  </g>
  <g fill="#ffb14d" opacity=".82">
    <circle cx="800" cy="468" r="10"/>
    <circle cx="1030" cy="258" r="8"/>
    <circle cx="1260" cy="436" r="8"/>
  </g>
  <g fill="#ecfbff" font-family="IBM Plex Mono, monospace" font-size="25" opacity=".46">
    <text x="126" y="132">REFERRAL CRED</text>
    <text x="126" y="170">GUIDE NETWORK</text>
    <text x="1088" y="734">5 + 5 CRED</text>
  </g>
</svg>
