<?xml version="1.0" encoding="UTF-8" standalone="no"?>
<svg
   version="1.1"
   style="display: block;"
   viewBox="0 0 2000 2000"
   width="500"
   height="500"
   preserveAspectRatio="none"
   id="svg10"
   sodipodi:docname="USDm.svg"
   inkscape:version="1.4.3 (0d15f75042, 2025-12-25)"
   xmlns:inkscape="http://www.inkscape.org/namespaces/inkscape"
   xmlns:sodipodi="http://sodipodi.sourceforge.net/DTD/sodipodi-0.dtd"
   xmlns="http://www.w3.org/2000/svg"
   xmlns:svg="http://www.w3.org/2000/svg">
  <defs
     id="defs10" />
  <sodipodi:namedview
     id="namedview10"
     pagecolor="#ffffff"
     bordercolor="#000000"
     borderopacity="0.25"
     inkscape:showpageshadow="2"
     inkscape:pageopacity="0.0"
     inkscape:pagecheckerboard="0"
     inkscape:deskcolor="#d1d1d1"
     inkscape:zoom="1.85"
     inkscape:cx="250.27027"
     inkscape:cy="250.27027"
     inkscape:window-width="2560"
     inkscape:window-height="1403"
     inkscape:window-x="0"
     inkscape:window-y="0"
     inkscape:window-maximized="1"
     inkscape:current-layer="svg10" />
  <path
     fill="#445e4a"
     d="M 954.5986,1.050413 C 1506.3354,-24.02632 1973.9314,402.94525 1998.9533,954.68618 2023.9861,1506.4282 1596.9663,1973.9793 1045.2295,1998.9576 493.54937,2023.9358 26.070144,1596.9825 1.0462512,1045.3125 -23.977641,493.64025 402.92832,26.123984 954.5986,1.050413 Z"
     id="path6"
     style="stroke-width:1.09075" />
  <path
     fill="#ccd3cb"
     d="M 974.00096,159.64303 C 1438.0868,145.19819 1826.0358,509.64814 1840.5756,973.72745 1855.1154,1437.8089 1490.7485,1825.8333 1026.6757,1840.4712 562.45785,1855.12 174.28963,1490.6232 159.74222,1026.3988 145.19373,562.18207 509.77872,174.09223 974.00096,159.64303 Z"
     id="path7"
     style="stroke-width:1.09075" />
  <path
     fill="#445e4a"
     d="m 575.64835,401.70616 243.59078,-0.0207 c 4.17541,14.69244 12.39861,35.58908 17.71277,50.4026 l 32.94954,92.64308 92.19829,265.17182 c 14.58121,41.98307 31.38103,86.64722 44.88787,128.4754 6.4682,-23.78059 16.0886,-52.19579 23.5494,-76.03965 l 44.0011,-139.89994 c 33.3553,-106.65054 67.6377,-213.00548 102.8582,-319.05282 27.8034,2.05825 75.3494,0.54319 104.2871,0.50938 56.0103,-0.0654 113.4277,0.58028 169.2635,-0.3305 l -0.1091,637.77727 0.011,203 c -0.011,27.6833 -1.5816,78.6978 0.5563,104.9959 -59.239,-30.1266 -119.3069,-70.6154 -180.3455,-96.3353 0.8071,-33.0935 -0.949,-72.077 -1.3417,-105.7376 l -3.7085,-236.9878 -3.0323,-134.7516 c -0.6436,-26.49438 -2.0834,-53.87773 -1.8761,-80.28485 l -106.2178,316.88005 c -12.3582,36.7583 -24.9674,73.4294 -37.8165,110.0133 -9.0751,25.9053 -19.1209,55.4538 -30.2794,80.2903 -55.2031,1.4725 -113.86173,-1.0362 -170.09453,0.1963 -11.34059,-37.0747 -29.87579,-84.926 -43.07066,-122.4152 L 783.92929,825.8301 c -11.59364,-32.90801 -31.31777,-83.31606 -40.53683,-115.38746 -0.45812,61.0527 -1.27728,122.10213 -2.45748,183.14393 -1.59468,121.85013 -4.28666,243.68723 -8.07813,365.49163 -58.35323,28.8831 -120.52629,62.8055 -180.16116,88.1655 l 0.14834,-945.26485 z"
     id="path8"
     style="stroke-width:1.09075" />
  <path
     fill="#445e4a"
     d="m 1190.4745,1276.1921 c 5.3992,-0.2073 10.7875,-0.3709 16.1868,-0.5018 27.247,-0.5344 22.9604,15.3251 22.7968,36.2567 -0.033,4.5484 -0.1527,9.2386 -0.24,13.798 8.9224,0.9162 19.6881,3.6104 27.7815,7.6352 19.1101,9.5114 33.5517,26.4508 40.3798,46.6297 1.767,5.2247 2.9559,11.5947 -0.1963,16.4922 -2.4215,3.774 -8.3552,5.8683 -12.5001,6.0864 -43.8484,2.3015 -24.3129,-12.3146 -48.6259,-32.559 -11.3766,-9.4677 -37.2711,-9.4241 -51.2655,-6.6754 -11.5074,2.2579 -18.4228,6.3918 -25.5127,16.0668 -5.2466,7.1663 -5.4211,21.9678 -3.425,29.9957 7.0463,28.3596 58.7917,27.3452 82.0139,33.028 15.1942,3.7195 26.1018,6.1846 39.8453,14.2343 13.8089,8.1043 25.5455,22.2514 28.5123,38.0782 4.5594,24.3456 3.8068,45.8989 -10.1113,66.9613 -16.514,25.0001 -37.3474,33.737 -65.0963,39.9979 -0.044,11.2457 3.3705,38.1655 -4.7666,45.9534 -6.0755,5.8138 -20.9861,4.2758 -29.3522,3.9595 -17.103,-2.6942 -14.5398,-16.0886 -14.4743,-29.9848 0.022,-6.6863 0.4145,-13.4817 0.6435,-20.168 -15.4014,-1.7889 -30.7375,-6.7627 -43.9574,-14.5725 -20.6371,-12.2055 -32.1446,-29.5485 -37.3038,-52.727 -1.0581,-4.7448 -2.3015,-10.8639 0.9707,-15.1178 2.247,-2.945 6.9918,-4.4285 10.3731,-4.723 51.331,-4.4502 23.7785,13.9617 52.9562,39.6162 12.0965,10.6239 38.2855,11.4747 53.4797,9.0532 14.2453,-2.2688 24.4875,-8.017 33.2462,-19.9389 5.8683,-7.9734 7.4281,-20.4953 5.432,-30.0721 -6.5554,-31.5118 -58.1809,-31.2501 -82.9301,-37.2056 -15.4997,-3.7413 -29.3741,-7.188 -42.9976,-16.2304 -14.518,-9.6204 -22.4805,-22.993 -25.7527,-39.7579 -3.6323,-18.5428 -1.0472,-43.3029 9.904,-59.0316 15.8051,-22.6876 38.7546,-31.8718 64.8345,-36.911 -0.4581,-14.0271 -5.1702,-41.2196 9.1515,-47.6659 z"
     id="path9"
     style="stroke-width:1.09075" />
  <path
     fill="#445e4a"
     d="m 781.04414,1276.1594 1.03077,-0.033 c 46.61779,-1.3089 38.9476,6.7736 38.27133,49.5857 29.73509,3.6213 53.67717,20.3861 65.73111,48.3421 2.9134,6.7627 5.27598,17.0048 2.26986,23.8984 -6.45182,5.8901 -39.21702,6.2609 -41.957,-0.087 -14.13728,-32.7225 -33.85378,-39.8342 -67.5963,-34.9804 -24.3762,3.5013 -36.86644,19.9608 -32.32999,44.6118 7.09864,31.0428 60.13444,29.3085 84.33503,35.3186 33.23096,8.2461 61.45207,19.8408 67.44141,57.2427 8.78494,54.8539 -23.67267,91.6559 -76.21108,101.5163 0.0654,11.0712 3.68675,37.6092 -4.66625,45.7135 -6.28057,6.0864 -20.66327,4.6902 -29.23552,4.4503 -20.43967,-4.3085 -13.61045,-20.6153 -14.3598,-36.7475 -0.20397,-4.3848 0.0611,-9.1187 0.0753,-13.5253 -39.73731,-3.545 -73.55946,-29.7231 -82.58873,-69.1538 -2.69526,-11.7692 5.81372,-17.2666 15.90757,-18.51 42.95941,-5.2902 25.52259,20.4407 50.09513,40.096 13.02907,10.4276 34.96853,11.2784 50.90774,9.555 26.26211,-2.476 47.58093,-24.411 40.65681,-51.898 -7.90034,-31.37 -61.36481,-29.8321 -87.30515,-36.7693 -32.25691,-8.6169 -58.01183,-20.6697 -64.31858,-56.73 -9.09253,-51.9962 25.37098,-86.4967 75.05816,-93.6193 -0.41994,-14.7688 -5.0382,-40.0634 8.78821,-48.2767 z"
     id="path10"
     style="stroke-width:1.09075" />
</svg>
